# xmcd
#
# Track frame offsets:
#	150
#	54589
#	82556
#	123935
#	148040
#	172159
#	200226
# Disc length: 3192 seconds
# Revision: 4
# Processed by: cddbd v1.5.1PL0 Copyright (c) Steve Scherf et al.
#
# Submitted via: libkcddb 0.10
#
DISCID=5f0c7607
DTITLE=Rory Gallagher - Golder's Green 14.8.1974
DYEAR=1967
DGENRE=Blues
TTITLE0=Messin' with the Kid
TTITLE1=Craddle Rock
TTITLE2=I wonder who
TTITLE3=Tattoed Lady
TTITLE4=Stompin Ground
TTITLE5=Who's that coming
TTITLE6=Bullfrog Blues
EXTD=
EXTT0=
EXTT1=
EXTT2=
EXTT3=
EXTT4=
EXTT5=
EXTT6=
PLAYORDER=
